<svg xmlns="http://www.w3.org/2000/svg" width="115.393" height="110.886" viewBox="0 0 115.393 110.886">
  <g id="icon_2" transform="translate(0 -10)">
    <g id="Group_7" data-name="Group 7" transform="translate(0 37.947)">
      <path id="Path_36" data-name="Path 36" d="M0,134v73.924a9.026,9.026,0,0,0,9.015,9.015h97.363a9.026,9.026,0,0,0,9.015-9.015V134Z" transform="translate(0 -134)" fill="#d8dce1"/>
    </g>
    <g id="Group_8" data-name="Group 8" transform="translate(0 12.705)">
      <path id="Path_37" data-name="Path 37" d="M106.378,22H9.015A9.026,9.026,0,0,0,0,31.015V47.242H115.393V31.015A9.026,9.026,0,0,0,106.378,22ZM14.424,40.03a5.409,5.409,0,1,1,5.409-5.409A5.409,5.409,0,0,1,14.424,40.03Zm86.545,0a5.409,5.409,0,1,1,5.409-5.409A5.409,5.409,0,0,1,100.969,40.03Z" transform="translate(0 -22)" fill="#ff4f19"/>
    </g>
    <g id="Group_24" data-name="Group 24" transform="translate(14.424 54.174)">
      <g id="Group_9" data-name="Group 9" transform="translate(36.06)">
        <path id="Path_38" data-name="Path 38" d="M231.212,206a7.212,7.212,0,1,0,7.212,7.212A7.219,7.219,0,0,0,231.212,206Z" transform="translate(-224 -206)" fill="#fff"/>
      </g>
      <g id="Group_10" data-name="Group 10" transform="translate(18.03)">
        <path id="Path_39" data-name="Path 39" d="M151.212,206a7.212,7.212,0,1,0,7.212,7.212A7.219,7.219,0,0,0,151.212,206Z" transform="translate(-144 -206)" fill="#fff"/>
      </g>
      <g id="Group_11" data-name="Group 11">
        <path id="Path_40" data-name="Path 40" d="M71.212,206a7.212,7.212,0,1,0,7.212,7.212A7.219,7.219,0,0,0,71.212,206Z" transform="translate(-64 -206)" fill="#fff"/>
      </g>
      <g id="Group_12" data-name="Group 12" transform="translate(54.091)">
        <path id="Path_41" data-name="Path 41" d="M311.212,206a7.212,7.212,0,1,0,7.212,7.212A7.219,7.219,0,0,0,311.212,206Z" transform="translate(-304 -206)" fill="#fff"/>
      </g>
      <g id="Group_13" data-name="Group 13" transform="translate(72.121)">
        <path id="Path_42" data-name="Path 42" d="M391.212,220.424A7.212,7.212,0,1,0,384,213.212,7.219,7.219,0,0,0,391.212,220.424Z" transform="translate(-384 -206)" fill="#fff"/>
      </g>
      <g id="Group_14" data-name="Group 14" transform="translate(36.06 18.03)">
        <path id="Path_43" data-name="Path 43" d="M231.212,286a7.212,7.212,0,1,0,7.212,7.212A7.219,7.219,0,0,0,231.212,286Z" transform="translate(-224 -286)" fill="#fff"/>
      </g>
      <g id="Group_15" data-name="Group 15" transform="translate(18.03 18.03)">
        <path id="Path_44" data-name="Path 44" d="M151.212,286a7.212,7.212,0,1,0,7.212,7.212A7.219,7.219,0,0,0,151.212,286Z" transform="translate(-144 -286)" fill="#fff"/>
      </g>
      <g id="Group_16" data-name="Group 16" transform="translate(0 18.03)">
        <path id="Path_45" data-name="Path 45" d="M71.212,286a7.212,7.212,0,1,0,7.212,7.212A7.219,7.219,0,0,0,71.212,286Z" transform="translate(-64 -286)" fill="#fff"/>
      </g>
      <g id="Group_17" data-name="Group 17" transform="translate(54.091 18.03)">
        <path id="Path_46" data-name="Path 46" d="M311.212,286a7.212,7.212,0,1,0,7.212,7.212A7.219,7.219,0,0,0,311.212,286Z" transform="translate(-304 -286)" fill="#fff"/>
      </g>
      <g id="Group_18" data-name="Group 18" transform="translate(72.121 18.03)">
        <path id="Path_47" data-name="Path 47" d="M391.212,286a7.212,7.212,0,1,0,7.212,7.212A7.219,7.219,0,0,0,391.212,286Z" transform="translate(-384 -286)" fill="#fff"/>
      </g>
      <g id="Group_19" data-name="Group 19" transform="translate(36.06 36.06)">
        <path id="Path_48" data-name="Path 48" d="M231.212,366a7.212,7.212,0,1,0,7.212,7.212A7.219,7.219,0,0,0,231.212,366Z" transform="translate(-224 -366)" fill="#fff"/>
      </g>
      <g id="Group_20" data-name="Group 20" transform="translate(18.03 36.06)">
        <path id="Path_49" data-name="Path 49" d="M151.212,366a7.212,7.212,0,1,0,7.212,7.212A7.219,7.219,0,0,0,151.212,366Z" transform="translate(-144 -366)" fill="#fff"/>
      </g>
      <g id="Group_21" data-name="Group 21" transform="translate(0 36.06)">
        <path id="Path_50" data-name="Path 50" d="M71.212,366a7.212,7.212,0,1,0,7.212,7.212A7.219,7.219,0,0,0,71.212,366Z" transform="translate(-64 -366)" fill="#fff"/>
      </g>
      <g id="Group_22" data-name="Group 22" transform="translate(54.091 36.06)">
        <path id="Path_51" data-name="Path 51" d="M311.212,366a7.212,7.212,0,1,0,7.212,7.212A7.219,7.219,0,0,0,311.212,366Z" transform="translate(-304 -366)" fill="#fff"/>
      </g>
      <g id="Group_23" data-name="Group 23" transform="translate(72.121 36.06)">
        <path id="Path_52" data-name="Path 52" d="M391.212,366a7.212,7.212,0,1,0,7.212,7.212A7.219,7.219,0,0,0,391.212,366Z" transform="translate(-384 -366)" fill="#fff"/>
      </g>
    </g>
    <g id="Group_26" data-name="Group 26" transform="translate(11.72 10)">
      <g id="Group_25" data-name="Group 25" transform="translate(0 0)">
        <path id="Path_53" data-name="Path 53" d="M54.7,28.03a2.7,2.7,0,0,1-2.7-2.7V12.7a2.7,2.7,0,1,1,5.409,0V25.326A2.7,2.7,0,0,1,54.7,28.03Z" transform="translate(-52 -10)" fill="#5c546a"/>
      </g>
    </g>
    <g id="Group_28" data-name="Group 28" transform="translate(98.265 10)">
      <g id="Group_27" data-name="Group 27" transform="translate(0 0)">
        <path id="Path_54" data-name="Path 54" d="M438.7,28.03a2.7,2.7,0,0,1-2.7-2.7V12.7a2.7,2.7,0,1,1,5.409,0V25.326A2.7,2.7,0,0,1,438.7,28.03Z" transform="translate(-436 -10)" fill="#5c546a"/>
      </g>
    </g>
    <g id="Group_29" data-name="Group 29" transform="translate(14.424 54.174)">
      <circle id="Ellipse_1" data-name="Ellipse 1" cx="7.5" cy="7.5" r="7.5" transform="translate(-0.424 -0.174)" fill="#ffd200"/>
    </g>
    <g id="Group_30" data-name="Group 30" transform="translate(50.485 90.234)">
      <circle id="Ellipse_2" data-name="Ellipse 2" cx="7.5" cy="7.5" r="7.5" transform="translate(-0.485 -0.234)" fill="#ff9600"/>
    </g>
    <g id="Group_31" data-name="Group 31" transform="translate(68.515 72.204)">
      <ellipse id="Ellipse_3" data-name="Ellipse 3" cx="7" cy="7.5" rx="7" ry="7.5" transform="translate(0.485 -0.204)" fill="#ff4f19"/>
    </g>
  </g>
</svg>
