<svg xmlns="http://www.w3.org/2000/svg" width="137.524" height="110.886" viewBox="0 0 137.524 110.886">
  <g id="icon_1" transform="translate(0 -49.587)">
    <path id="Path_17" data-name="Path 17" d="M160.428,51.857h-5.846a7.69,7.69,0,0,0-7.69,7.69V73.76h7.061V59.472a.554.554,0,0,1,.554-.554h5.921Z" transform="translate(-107.437 -1.66)" fill="#c6865c"/>
    <path id="Path_18" data-name="Path 18" d="M313.714,51.857h6.146a7.69,7.69,0,0,1,7.69,7.69V73.76h-7.061V59.472a.554.554,0,0,0-.554-.554h-6.221Z" transform="translate(-229.45 -1.66)" fill="#c6865c"/>
    <path id="Path_19" data-name="Path 19" d="M.117,202.151v68.124a1.775,1.775,0,0,0,1.775,1.775H135.834a1.775,1.775,0,0,0,1.775-1.775V202.14Z" transform="translate(-0.086 -111.577)" fill="#d8aa8b"/>
    <path id="Path_20" data-name="Path 20" d="M70.015,260.007v4.237H47.348v-4.237H31.678v43.45a2.439,2.439,0,0,0,2.439,2.439h55.39a2.439,2.439,0,0,0,2.439-2.439v-43.45Z" transform="translate(-23.169 -153.901)" fill="#c6865c"/>
    <path id="Path_21" data-name="Path 21" d="M316.327,260.007h-15.67v4.237H277.991v-4.237H256.059v43.45A2.439,2.439,0,0,0,258.5,305.9h55.39a2.439,2.439,0,0,0,2.439-2.439Z" transform="translate(-187.281 -153.901)" fill="#c6865c"/>
    <path id="Path_22" data-name="Path 22" d="M80.877,260.007v27.3a13.05,13.05,0,0,1-13.05,13.05H31.679v3.1a2.439,2.439,0,0,0,2.439,2.439h55.39a2.439,2.439,0,0,0,2.439-2.439v-43.45Z" transform="translate(-23.17 -153.901)" fill="#c17d4f"/>
    <path id="Path_23" data-name="Path 23" d="M305.257,260.007v27.3a13.05,13.05,0,0,1-13.05,13.05H256.059v3.1A2.439,2.439,0,0,0,258.5,305.9h55.39a2.439,2.439,0,0,0,2.439-2.439v-43.45Z" transform="translate(-187.281 -153.901)" fill="#c17d4f"/>
    <path id="Path_24" data-name="Path 24" d="M135.717,114.4H1.775A1.775,1.775,0,0,0,0,116.178V148.4a5.114,5.114,0,0,0,5.114,5.114H132.378a5.114,5.114,0,0,0,5.114-5.114v-32.22A1.775,1.775,0,0,0,135.717,114.4Z" transform="translate(0 -47.406)" fill="#d8aa8b"/>
    <path id="Path_25" data-name="Path 25" d="M135.717,114.4h-9.3v21.936a11.638,11.638,0,0,1-11.638,11.638H0v.421a5.114,5.114,0,0,0,5.114,5.114H132.378a5.114,5.114,0,0,0,5.114-5.114v-32.22a1.775,1.775,0,0,0-1.775-1.775Z" transform="translate(0 -47.406)" fill="#ce9875"/>
    <path id="Path_26" data-name="Path 26" d="M112.09,252.506H90.614a.6.6,0,0,1-.6-.6v-7.357a.6.6,0,0,1,.6-.6H112.09a.6.6,0,0,1,.6.6v7.357A.6.6,0,0,1,112.09,252.506Z" transform="translate(-65.84 -142.164)" fill="#f6f9f9"/>
    <path id="Path_27" data-name="Path 27" d="M114.919,202.978H100.35a1.742,1.742,0,0,0-1.742,1.742v9.266h18.053V204.72a1.742,1.742,0,0,0-1.742-1.742Z" transform="translate(-72.122 -112.19)" fill="#c6865c"/>
    <path id="Path_28" data-name="Path 28" d="M113.839,275.78H92.51v12.587a4.965,4.965,0,0,0,4.965,4.965h11.4a4.965,4.965,0,0,0,4.965-4.965V275.78Z" transform="translate(-67.662 -165.437)" fill="#e7ecf1"/>
    <path id="Path_29" data-name="Path 29" d="M125.666,313.151h-7.46v-9a1.278,1.278,0,0,1,1.278-1.278h4.9a1.278,1.278,0,0,1,1.278,1.278v9Z" transform="translate(-86.456 -185.257)" fill="#dae4ea"/>
    <path id="Path_30" data-name="Path 30" d="M338.305,252.506h21.476a.6.6,0,0,0,.6-.6v-7.357a.6.6,0,0,0-.6-.6H338.305a.6.6,0,0,0-.6.6v7.357A.6.6,0,0,0,338.305,252.506Z" transform="translate(-247.001 -142.164)" fill="#f6f9f9"/>
    <path id="Path_31" data-name="Path 31" d="M348.041,202.978H362.61a1.742,1.742,0,0,1,1.742,1.742v9.266H346.3V204.72a1.742,1.742,0,0,1,1.742-1.742Z" transform="translate(-253.283 -112.19)" fill="#c6865c"/>
    <path id="Path_32" data-name="Path 32" d="M340.2,275.78H361.53v12.587a4.965,4.965,0,0,1-4.965,4.965h-11.4a4.965,4.965,0,0,1-4.965-4.965Z" transform="translate(-248.823 -165.437)" fill="#e7ecf1"/>
    <path id="Path_33" data-name="Path 33" d="M366.136,313.151h7.46v-9a1.278,1.278,0,0,0-1.278-1.278h-4.9a1.278,1.278,0,0,0-1.278,1.278v9Z" transform="translate(-267.792 -185.257)" fill="#dae4ea"/>
    <path id="Path_34" data-name="Path 34" d="M222.689,57.868H185.111a.366.366,0,0,1-.366-.366V49.953a.366.366,0,0,1,.366-.366h37.577a.366.366,0,0,1,.366.366V57.5A.366.366,0,0,1,222.689,57.868Z" transform="translate(-135.122)" fill="#d8aa8b"/>
    <path id="Path_35" data-name="Path 35" d="M235.69,180.293H218.178a1.9,1.9,0,0,1-1.9-1.9v-4.23a1.9,1.9,0,0,1,1.9-1.9H235.69a1.9,1.9,0,0,1,1.9,1.9v4.23A1.9,1.9,0,0,1,235.69,180.293Z" transform="translate(-158.188 -89.73)" fill="#f6f9f9"/>
  </g>
</svg>
