<svg id="icon_3" xmlns="http://www.w3.org/2000/svg" width="106.238" height="110.886" viewBox="0 0 106.238 110.886">
  <path id="Path_55" data-name="Path 55" d="M106.238,49.986V117.41H0V49.986L53.119,8.328Zm0,0" transform="translate(0 -6.524)" fill="#ff9a00"/>
  <path id="Path_56" data-name="Path 56" d="M298.389,49.986V117.41H245.307a2.527,2.527,0,0,1-.037-.433V8.328Zm0,0" transform="translate(-192.151 -6.524)" fill="#e67500"/>
  <path id="Path_57" data-name="Path 57" d="M73.969,0h74.2V90.025h-74.2Zm0,0" transform="translate(-57.949)" fill="#e1e4fb"/>
  <path id="Path_58" data-name="Path 58" d="M245.27,0h37.1V90.025h-37.1Zm0,0" transform="translate(-192.151)" fill="#c5c9f7"/>
  <path id="Path_59" data-name="Path 59" d="M106.238,200.789v67.4H0v-67.4l53.119,41.658Zm0,0" transform="translate(0 -157.303)" fill="#ffb74f"/>
  <path id="Path_60" data-name="Path 60" d="M298.389,200.789v67.4H245.307a2.527,2.527,0,0,1-.037-.433V242.447Zm0,0" transform="translate(-192.151 -157.303)" fill="#ff9a00"/>
  <path id="Path_61" data-name="Path 61" d="M159.3,63h37.237v6.5H159.3Zm0,0" transform="translate(-124.801 -49.356)" fill="#97a1f0"/>
  <path id="Path_62" data-name="Path 62" d="M159.3,122.672h37.237v6.5H159.3Zm0,0" transform="translate(-124.801 -96.104)" fill="#97a1f0"/>
  <path id="Path_63" data-name="Path 63" d="M159.3,182.328h37.237v6.5H159.3Zm0,0" transform="translate(-124.801 -142.841)" fill="#97a1f0"/>
  <path id="Path_64" data-name="Path 64" d="M191.77,242h23.173v6.5H191.77Zm0,0" transform="translate(-150.238 -189.589)" fill="#97a1f0"/>
  <path id="Path_65" data-name="Path 65" d="M245.27,242h11.587v6.5H245.27Zm0,0" transform="translate(-192.151 -189.589)" fill="#6d76e7"/>
  <path id="Path_66" data-name="Path 66" d="M245.27,63h18.618v6.5H245.27Zm0,0" transform="translate(-192.151 -49.356)" fill="#6d76e7"/>
  <path id="Path_67" data-name="Path 67" d="M245.27,122.672h18.618v6.5H245.27Zm0,0" transform="translate(-192.151 -96.104)" fill="#6d76e7"/>
  <path id="Path_68" data-name="Path 68" d="M245.27,182.328h18.618v6.5H245.27Zm0,0" transform="translate(-192.151 -142.841)" fill="#6d76e7"/>
</svg>
