<svg xmlns="http://www.w3.org/2000/svg" width="60.123" height="45.256" viewBox="0 0 60.123 45.256">
  <g id="list-black" transform="translate(0 -7.434)">
    <path id="Path_69" data-name="Path 69" d="M57.124,51.893H16.92a3,3,0,1,1,0-6h40.2a3,3,0,0,1,0,6Z" fill="#01d486"/>
    <path id="Path_70" data-name="Path 70" d="M57.124,33.062H16.92a3,3,0,1,1,0-6h40.2a3,3,0,0,1,0,6Z" fill="#01d486"/>
    <path id="Path_71" data-name="Path 71" d="M57.124,14.231H16.92a3,3,0,1,1,0-6h40.2a3,3,0,0,1,0,6Z" fill="#01d486"/>
    <circle id="Ellipse_7" data-name="Ellipse 7" cx="4.029" cy="4.029" r="4.029" transform="translate(0 7.434)" fill="#01d486"/>
    <circle id="Ellipse_8" data-name="Ellipse 8" cx="4.029" cy="4.029" r="4.029" transform="translate(0 26.033)" fill="#01d486"/>
    <circle id="Ellipse_9" data-name="Ellipse 9" cx="4.029" cy="4.029" r="4.029" transform="translate(0 44.632)" fill="#01d486"/>
  </g>
</svg>
