<svg xmlns="http://www.w3.org/2000/svg" width="53.712" height="61.967" viewBox="0 0 53.712 61.967"><path d="M53.956,37.551l-5.164-6.2a1.066,1.066,0,0,0-1.59,0l-5.164,6.2a1.033,1.033,0,0,0,.795,1.694h1.643c-1.529,6.228-7.065,11.031-14.037,12.147V24.785h9.3a1.033,1.033,0,0,0,1.033-1.033V19.621a1.033,1.033,0,0,0-1.033-1.033h-9.3V15.923a8.263,8.263,0,1,0-6.2,0v2.665h-9.3a1.033,1.033,0,0,0-1.033,1.033v4.131a1.033,1.033,0,0,0,1.033,1.033h9.3V51.391C17.269,50.276,11.733,45.473,10.2,39.245h1.642a1.033,1.033,0,0,0,.8-1.694l-5.164-6.2a1.066,1.066,0,0,0-1.59,0l-5.164,6.2a1.033,1.033,0,0,0,.795,1.694h2.3C5.33,48.851,13.706,56.4,24.241,57.651v1.218a1.069,1.069,0,0,0,.3.733l2.066,2.066a1.048,1.048,0,0,0,1.467,0L30.139,59.6a1.066,1.066,0,0,0,.3-.733V57.651c10.535-1.25,18.912-8.8,20.42-18.406h2.3a1.033,1.033,0,0,0,.8-1.694ZM27.339,11.358a3.1,3.1,0,1,1,3.1-3.1A3.1,3.1,0,0,1,27.339,11.358Zm0,0" transform="translate(-0.484 0)" fill="#fff"/></svg>